<svg height="512pt" viewBox="0 -1 512 512" width="512pt" xmlns="http://www.w3.org/2000/svg"><path d="m457 0h-402c-30.328125 0-55 24.671875-55 55v280c0 30.328125 24.671875 55 55 55h130.1875l-10 30h-9.1875c-24.8125 0-45 20.1875-45 45v30c0 8.285156 6.714844 15 15 15h240c8.285156 0 15-6.714844 15-15v-30c0-24.8125-20.1875-45-45-45h-9.1875l-10-30h130.1875c30.328125 0 55-24.671875 55-55v-280c0-30.328125-24.671875-55-55-55zm-402 30h402c13.785156 0 25 11.214844 25 25v245h-452v-245c0-13.785156 11.214844-25 25-25zm306 435v15h-210v-15c0-8.269531 6.730469-15 15-15h180c8.269531 0 15 6.730469 15 15zm-55.8125-45h-98.375l10-30h78.375zm176.8125-85c0 13.785156-11.214844 25-25 25h-402c-13.785156 0-25-11.214844-25-25v-5h452zm0 0"/><path d="m325.394531 235.605469c2.925781 2.929687 6.765625 4.394531 10.605469 4.394531s7.679688-1.464844 10.605469-4.394531l60-60c5.859375-5.855469 5.859375-15.355469 0-21.210938l-60-60c-5.855469-5.859375-15.355469-5.859375-21.210938 0-5.859375 5.855469-5.859375 15.351563 0 21.210938l49.390625 49.394531-49.390625 49.394531c-5.859375 5.855469-5.859375 15.355469 0 21.210938zm0 0"/><path d="m165.394531 235.605469c2.925781 2.929687 6.765625 4.394531 10.605469 4.394531s7.679688-1.464844 10.605469-4.394531c5.859375-5.855469 5.859375-15.355469 0-21.210938l-49.390625-49.394531 49.390625-49.394531c5.859375-5.855469 5.859375-15.355469 0-21.210938-5.855469-5.859375-15.351563-5.859375-21.210938 0l-60 60c-5.859375 5.855469-5.859375 15.351563 0 21.210938zm0 0"/><path d="m221.257812 269.230469c1.570313.523437 3.171876.773437 4.746094.773437 6.277344 0 12.132813-3.976562 14.226563-10.261718l60-180c2.621093-7.859376-1.628907-16.355469-9.488281-18.972657-7.855469-2.617187-16.351563 1.625-18.972657 9.484375l-60 180c-2.621093 7.859375 1.628907 16.355469 9.488281 18.976563zm0 0"/></svg>